<?xml version="1.0" encoding="iso-8859-1"?>
<!-- Uploaded to: SVG Repo, www.svgrepo.com, Generator: SVG Repo Mixer Tools -->
<svg height="800px" width="800px" version="1.1" id="Layer_1" xmlns="http://www.w3.org/2000/svg" xmlns:xlink="http://www.w3.org/1999/xlink" 
	 viewBox="0 0 512.001 512.001" xml:space="preserve">
<path style="fill:#3C1146;" d="M376.563,486.176h-241.13c-14.106,0-27.406-5.369-37.452-15.115
	c-44.436-43.121-68.908-100.959-68.908-162.86c0-125.126,101.797-226.924,226.924-226.924c7.573,0,13.713,6.141,13.713,13.713
	c0,7.573-6.141,13.713-13.713,13.713c-110.003,0-199.497,89.494-199.497,199.497c0,54.419,21.514,105.266,60.581,143.176
	c4.898,4.754,11.416,7.372,18.351,7.372h241.13c6.935,0,13.453-2.618,18.351-7.372c39.066-37.911,60.581-88.758,60.581-143.176
	c0-11.752-1.029-23.527-3.057-34.994c-1.321-7.457,3.657-14.573,11.113-15.893c7.452-1.33,14.573,3.657,15.893,11.113
	c2.308,13.042,3.476,26.422,3.476,39.772c0,61.901-24.472,119.738-68.908,162.86C403.971,480.807,390.67,486.176,376.563,486.176z"
	/>
<path style="fill:#D4A8B4;" d="M429.903,104.897h-14.804c10.278-4.109,17.549-14.137,17.549-25.881V67.419
	c0-15.399-12.483-27.882-27.882-27.882H107.23c-15.399,0-27.882,12.483-27.882,27.882v11.596c0,11.744,7.271,21.773,17.549,25.881
	H82.091l-68.378,58.624l10.913,5.688c6.489,3.383,11.733,7.449,16.806,11.381c10.516,8.151,19.598,15.19,38.606,15.19
	c18.995,0,28.085-7.038,38.628-15.199c11.419-8.841,24.362-18.862,49.343-18.862c24.972,0,37.919,10.015,49.369,18.871
	c10.517,8.15,19.599,15.189,38.603,15.189c18.999,0,28.089-7.038,38.631-15.199c11.419-8.841,24.362-18.862,49.343-18.862
	c24.994,0,37.94,10.022,49.373,18.874c10.525,8.149,19.616,15.186,38.612,15.186c19.017,0,28.099-7.039,38.664-15.227
	c5.069-3.921,10.307-7.974,16.77-11.342l10.916-5.688L429.903,104.897z"/>
<g>
	<path style="fill:#3C1146;" d="M431.935,209.492c-23.685,0-36.076-9.593-47.006-18.057c-10.633-8.231-20.674-16.004-40.977-16.004
		c-20.289,0-30.321,7.766-40.942,15.989c-10.945,8.472-23.344,18.072-47.03,18.072c-23.697,0-36.08-9.597-47.004-18.063
		c-10.631-8.223-20.681-15.997-40.968-15.997c-20.292,0-30.325,7.767-40.946,15.991c-10.942,8.469-23.342,18.069-47.024,18.069
		c-23.702,0-36.084-9.597-47.007-18.063c-4.813-3.731-9.35-7.248-14.745-10.06l-10.912-5.688c-4.037-2.104-6.768-6.076-7.286-10.599
		c-0.518-4.524,1.241-9.008,4.698-11.972L69.85,97.33c-2.722-5.57-4.213-11.8-4.213-18.313V67.421
		c0-22.937,18.659-41.596,41.594-41.596h297.537c22.936,0,41.594,18.659,41.594,41.596v11.596c0,6.514-1.491,12.745-4.214,18.316
		l65.064,55.778c3.457,2.963,5.218,7.451,4.698,11.973c-0.518,4.524-3.249,8.494-7.286,10.599l-10.916,5.687
		c-5.38,2.804-9.913,6.314-14.713,10.029C467.519,200.291,455.645,209.492,431.935,209.492z M343.952,148.005
		c29.679,0,45.911,12.564,57.763,21.74c9.924,7.685,15.913,12.32,30.22,12.32c14.325,0,20.323-4.65,30.263-12.353
		c3.605-2.789,7.533-5.828,12.058-8.727l-49.427-42.373h-9.73c-6.574,0-12.224-4.665-13.465-11.122
		c-1.242-6.455,2.271-12.885,8.375-15.325c5.422-2.168,8.926-7.33,8.926-13.148V67.421c0-7.813-6.356-14.169-14.167-14.169H107.23
		c-7.811,0-14.167,6.356-14.167,14.169v11.596c0,5.819,3.504,10.98,8.925,13.148c6.105,2.44,9.619,8.87,8.375,15.326
		c-1.242,6.455-6.891,11.12-13.465,11.12h-9.732l-49.428,42.375c4.543,2.91,8.479,5.961,12.086,8.757
		c9.915,7.686,15.897,12.322,30.214,12.322c14.307,0,20.303-4.641,30.234-12.328c11.846-9.172,28.067-21.732,57.737-21.732
		c29.655,0,45.898,12.563,57.758,21.737c9.919,7.688,15.901,12.323,30.214,12.323c14.31,0,20.306-4.641,30.237-12.328
		C298.066,160.563,314.287,148.005,343.952,148.005z"/>
	<path style="fill:#3C1146;" d="M340.774,118.612H96.897c-7.573,0-13.713-6.141-13.713-13.713s6.141-13.713,13.713-13.713h243.877
		c7.573,0,13.714,6.141,13.714,13.713S348.346,118.612,340.774,118.612z"/>
</g>
<path style="fill:#D4A8B4;" d="M319.579,369.171H192.417c-27.901,0-50.729-22.829-50.729-50.729l0,0
	c0-27.901,22.829-50.729,50.729-50.729h127.162c27.901,0,50.729,22.829,50.729,50.729l0,0
	C370.31,346.342,347.481,369.171,319.579,369.171z"/>
<path style="fill:#3C1146;" d="M319.581,382.883H192.417c-35.533,0-64.442-28.909-64.442-64.442s28.909-64.442,64.442-64.442
	h127.164c35.533,0,64.442,28.909,64.442,64.442S355.114,382.883,319.581,382.883z M192.417,281.425
	c-20.411,0-37.015,16.604-37.015,37.015s16.604,37.015,37.015,37.015h127.164c20.411,0,37.015-16.604,37.015-37.015
	s-16.604-37.015-37.015-37.015H192.417L192.417,281.425z"/>
</svg>